<svg xmlns="http://www.w3.org/2000/svg" height="28" width="28" viewBox="0 0 48 48"><path stroke="red" fill="red" d="M 33.3473 37.6473 Q 32.598 39.588 31.075 41.075 Q 28.15 43.979 24 44 Q 19.85 44 16.925 41.075 T 14 34 Q 14 31.45 15.15 29.2 T 18.55 25.85 V 22.85 L 3.05 7.35 L 5.2 5.2 L 42.8 42.8 L 40.65 44.95 L 33.3473 37.6473 Z M 18.55 14.25 V 9.45 Q 18.55 7.2 20.15 5.6 T 24 4 Q 26.25 4 27.85 5.6 T 29.45 9.45 V 25.15 Z M 26.5 22.2 V 19.6 H 24 V 17.65 H 26.45 V 13.3 H 24 V 11.35 H 26.45 V 9.45 Q 26.45 8.4 25.75 7.7 T 24 7 Q 22.95 7 22.25 7.7 T 21.55 9.45 V 17.25 Z"/></svg>